<?xml version="1.0" encoding="utf-8"?>
<!-- Generator: Adobe Illustrator 20.1.0, SVG Export Plug-In . SVG Version: 6.00 Build 0)  -->
<svg version="1.1" xmlns="http://www.w3.org/2000/svg" xmlns:xlink="http://www.w3.org/1999/xlink" x="0px" y="0px"
	 viewBox="0 0 48 48" style="enable-background:new 0 0 48 48;" xml:space="preserve">
<style type="text/css">
	.st0{fill:none;}
	.st1{fill:#4285F4;}
	.st2{fill:#34A853;}
	.st3{fill:#FBBC05;}
	.st4{fill:#EB4335;}
</style>
<g id="Layer_2">
	<rect y="0" class="st0" width="48" height="48"/>
</g>
<g id="Layer_1">
	<title>Box-logo</title>
	<desc>Created with Sketch.</desc>
	<g id="_x5B_Desktop_x5D_-AppBridge.io-">
		<g id="_x5B_Desktop_x5D_-Surveyor-V2" transform="translate(-273.000000, -548.000000)">
			<g id="Supported-Sources" transform="translate(196.000000, 435.000000)">
				<g id="Sources-List" transform="translate(77.000000, 112.000000)">
					<g id="Google-G-Logo" transform="translate(0.000000, 1.000000)">
						<rect id="Rectangle" x="1.6" y="1.8" class="st0" width="44.8" height="44.8"/>
						<path id="Shape" class="st1" d="M46.4,24.6c0-1.8-0.2-3.2-0.5-4.6H24.4v8.3H37c-0.3,2.1-1.6,5.2-4.7,7.2l0,0.3l6.8,5.1l0.5,0
							C43.9,37.1,46.4,31.4,46.4,24.6"/>
						<path id="Shape_1_" class="st2" d="M24.4,46.4c6.2,0,11.3-2,15.1-5.4l-7.2-5.5c-1.9,1.3-4.5,2.2-7.9,2.2c-6,0-11.2-3.9-13-9.3
							l-0.3,0l-7.1,5.3L4,34.1C7.8,41.4,15.5,46.4,24.4,46.4"/>
						<path id="Shape_2_" class="st3" d="M11.5,28.5c-0.5-1.4-0.8-2.9-0.8-4.4c0-1.5,0.3-3,0.7-4.4l0-0.3L4.3,14L4,14.1
							c-1.5,3-2.4,6.4-2.4,10s0.9,7,2.4,10L11.5,28.5"/>
						<path id="Shape_3_" class="st4" d="M24.4,10.4c4.3,0,7.2,1.8,8.8,3.3l6.4-6.2c-4-3.6-9.1-5.8-15.3-5.8
							c-8.9,0-16.7,5-20.4,12.3l7.4,5.6C13.3,14.3,18.4,10.4,24.4,10.4"/>
					</g>
				</g>
			</g>
		</g>
	</g>
</g>
</svg>
